<svg width="834" height="631" viewBox="0 0 834 631" fill="none" xmlns="http://www.w3.org/2000/svg">
<g clip-path="url(#clip0)">
<path d="M62.3882 219.894C62.0464 218.794 61.7046 217.695 61.5337 216.596C58.543 196.897 44.4439 86.0344 122.544 48.7443C160.996 30.4199 204.575 0.184678 345.566 56.074C511.935 122.042 620.711 10.2631 646.346 10.2631C671.98 10.2631 730.086 -30.0505 798.445 48.7443C866.804 127.539 815.534 222.826 815.534 222.826C815.534 222.826 783.064 312.615 793.318 358.426C803.572 404.237 815.534 440.886 812.116 455.545C808.699 470.205 806.99 569.157 750.593 591.146C694.197 613.135 712.996 609.47 581.405 602.14C449.813 594.811 381.454 614.968 354.111 625.962C326.767 636.957 285.751 633.292 212.265 580.151C138.779 527.011 121.69 543.502 84.0922 519.681C46.4947 495.859 -49.0371 364.107 31.1139 268.637C62.1319 231.805 63.1572 222.184 62.3882 219.894Z" fill="#E8E8E8"/>
<path d="M167.148 176.464C181.353 176.464 192.868 164.117 192.868 148.886C192.868 133.655 181.353 121.308 167.148 121.308C152.943 121.308 141.428 133.655 141.428 148.886C141.428 164.117 152.943 176.464 167.148 176.464Z" fill="#E8E8E8"/>
<path d="M195.004 167.577C204.678 167.577 212.521 159.167 212.521 148.794C212.521 138.421 204.678 130.012 195.004 130.012C185.33 130.012 177.487 138.421 177.487 148.794C177.487 159.167 185.33 167.577 195.004 167.577Z" fill="#E8E8E8"/>
<path d="M137.839 163.545C145.625 163.545 151.938 156.777 151.938 148.427C151.938 140.078 145.625 133.31 137.839 133.31C130.052 133.31 123.74 140.078 123.74 148.427C123.74 156.777 130.052 163.545 137.839 163.545Z" fill="#E8E8E8"/>
<path d="M671.296 132.76C685.501 132.76 697.016 120.413 697.016 105.182C697.016 89.9512 685.501 77.604 671.296 77.604C657.091 77.604 645.576 89.9512 645.576 105.182C645.576 120.413 657.091 132.76 671.296 132.76Z" fill="#E8E8E8"/>
<path d="M699.238 123.873C708.912 123.873 716.755 115.464 716.755 105.091C716.755 94.7173 708.912 86.3081 699.238 86.3081C689.563 86.3081 681.721 94.7173 681.721 105.091C681.721 115.464 689.563 123.873 699.238 123.873Z" fill="#E8E8E8"/>
<path d="M641.987 119.841C649.774 119.841 656.086 113.073 656.086 104.724C656.086 96.3746 649.774 89.6062 641.987 89.6062C634.2 89.6062 627.888 96.3746 627.888 104.724C627.888 113.073 634.2 119.841 641.987 119.841Z" fill="#E8E8E8"/>
<path d="M392.391 228.872C406.596 228.872 418.111 216.525 418.111 201.294C418.111 186.062 406.596 173.715 392.391 173.715C378.186 173.715 366.671 186.062 366.671 201.294C366.671 216.525 378.186 228.872 392.391 228.872Z" fill="#E8E8E8"/>
<path d="M436.421 208.332C440.123 198.748 435.879 187.761 426.941 183.791C418.003 179.821 407.755 184.372 404.053 193.956C400.351 203.54 404.595 214.527 413.533 218.497C422.471 222.467 432.719 217.916 436.421 208.332Z" fill="#E8E8E8"/>
<path d="M363.082 215.861C370.868 215.861 377.181 209.093 377.181 200.744C377.181 192.395 370.868 185.626 363.082 185.626C355.295 185.626 348.983 192.395 348.983 200.744C348.983 209.093 355.295 215.861 363.082 215.861Z" fill="#E8E8E8"/>
<path d="M20.0046 444.55C20.0046 444.55 36.2399 418.896 37.9489 415.231C39.6579 411.566 38.8034 396.906 38.8034 396.906H32.822C32.822 396.906 37.9489 381.331 52.4752 381.331C67.0015 381.331 71.274 388.66 72.9829 392.325C74.6919 395.99 73.8374 397.823 73.8374 397.823H68.7105V412.482L93.4907 456.461H103.745V527.926C103.745 527.926 43.0758 494.026 20.0046 444.55Z" fill="#BAC6F2"/>
<path d="M77.2555 509.601H89.2183V491.277C89.2183 491.277 83.2369 481.198 77.2555 491.277V509.601Z" fill="white"/>
<path d="M81.0151 472.403C85.168 472.403 88.5346 468.793 88.5346 464.34C88.5346 459.887 85.168 456.277 81.0151 456.277C76.8622 456.277 73.4956 459.887 73.4956 464.34C73.4956 468.793 76.8622 472.403 81.0151 472.403Z" fill="#E9EDFA"/>
<path d="M24.9606 454.537C28.3785 451.971 33.0782 452.796 35.4708 456.461C37.8633 460.034 37.0943 464.981 33.8473 467.639" fill="#E9EDFA"/>
<path d="M54.0134 435.662C58.1663 435.662 61.5329 432.053 61.5329 427.6C61.5329 423.147 58.1663 419.537 54.0134 419.537C49.8605 419.537 46.4939 423.147 46.4939 427.6C46.4939 432.053 49.8605 435.662 54.0134 435.662Z" fill="#E9EDFA"/>
<path d="M41.4523 457.835C41.4523 455.727 42.2213 453.712 43.4176 452.154C45.8102 448.947 49.399 447.023 53.2442 446.84C61.191 446.657 64.6944 453.803 65.2071 456.735C65.9761 461.133 65.8052 483.489 65.8052 483.489L47.1773 483.397L41.3668 476.801L41.4523 457.835Z" fill="white"/>
<path d="M101.779 428.241L103.745 528.017C103.745 528.017 138.949 542.126 153.818 545.425C168.686 548.723 203.207 569.888 203.207 569.888L202.609 428.607L101.779 427.874" fill="#E9EDFA"/>
<path d="M101.096 428.241L202.694 428.699L202.267 402.678H172.189C172.189 402.678 168.429 387.103 154.416 387.103C137.24 387.103 134.335 403.503 134.335 403.503L101.01 403.136L101.096 428.241Z" fill="#BAC6F2"/>
<path d="M129.806 442.992H111.862V463.881H129.806V442.992Z" fill="#BAC6F2"/>
<path d="M162.277 442.717H144.333V463.607H162.277V442.717Z" fill="#BAC6F2"/>
<path d="M194.32 442.992H176.376V463.881H194.32V442.992Z" fill="white"/>
<path d="M194.577 482.298H176.632V503.188H194.577V482.298Z" fill="#BAC6F2"/>
<path d="M194.833 528.017H176.889V548.907H194.833V528.017Z" fill="#BAC6F2"/>
<path d="M161.508 481.748H143.564V502.638H161.508V481.748Z" fill="#BAC6F2"/>
<path d="M161.508 481.748H143.564V502.638H161.508V481.748Z" fill="white"/>
<path d="M129.892 482.664H111.948V503.554H129.892V482.664Z" fill="#BAC6F2"/>
<path d="M112.375 531.132L112.204 524.994L129.636 525.36L129.721 537.637C129.721 537.729 116.818 533.148 112.375 531.132Z" fill="#BAC6F2"/>
<path d="M144.589 542.677L144.333 527.101L162.021 527.468L161.593 547.808L144.589 542.677Z" fill="#BAC6F2"/>
<path d="M153.476 417.796C158.95 417.796 163.388 413.038 163.388 407.168C163.388 401.298 158.95 396.54 153.476 396.54C148.002 396.54 143.564 401.298 143.564 407.168C143.564 413.038 148.002 417.796 153.476 417.796Z" fill="white"/>
<path d="M202.352 498.24L203.207 569.98C203.207 569.98 256.442 607.911 259.774 610.66C263.107 613.409 290.963 627.885 303.609 628.71L305.916 484.039L298.397 483.764L261.825 435.113L248.324 434.38L202.352 498.24Z" fill="#BAC6F2"/>
<path d="M202.352 498.24L248.409 436.212L253.451 436.395L259.261 436.762L262.508 437.128L298.482 483.764L305.916 484.039V481.29L298.739 480.923L264.303 435.754L264.474 418.346L247.811 417.429L247.213 435.296L202.951 458.11L202.352 498.24Z" fill="#E9EDFA"/>
<path d="M239.95 484.771H231.576V495.308H239.95V484.771Z" fill="white"/>
<path d="M276.864 484.863H268.49V495.4H276.864V484.863Z" fill="white"/>
<path d="M263.277 484.863H254.903V495.4H263.277V484.863Z" fill="white"/>
<path d="M252.169 484.771H243.795V495.308H252.169V484.771Z" fill="white"/>
<path d="M239.95 500.805H231.576V511.342H239.95V500.805Z" fill="white"/>
<path d="M276.864 500.897H268.49V511.433H276.864V500.897Z" fill="white"/>
<path d="M263.277 500.897H254.903V511.433H263.277V500.897Z" fill="white"/>
<path d="M252.169 500.805H243.795V511.342H252.169V500.805Z" fill="white"/>
<path d="M220.126 548.266H211.752V558.802H220.126V548.266Z" fill="white"/>
<path d="M230.978 536.171H222.604V546.708H230.978V536.171Z" fill="white"/>
<path d="M219.869 536.08H211.495V546.616H219.869V536.08Z" fill="white"/>
<path d="M231.063 548.357H222.689V558.893H231.063V548.357Z" fill="white"/>
<path d="M252.938 548.54H244.564V559.077H252.938V548.54Z" fill="white"/>
<path d="M263.79 536.447H255.416V546.983H263.79V536.447Z" fill="white"/>
<path d="M252.682 536.355H244.308V546.891H252.682V536.355Z" fill="white"/>
<path d="M263.876 548.632H255.502V559.168H263.876V548.632Z" fill="white"/>
<path d="M284.64 548.815H276.266V559.352H284.64V548.815Z" fill="white"/>
<path d="M295.492 536.721H287.118V547.258H295.492V536.721Z" fill="white"/>
<path d="M284.383 536.721H276.009V547.258H284.383V536.721Z" fill="white"/>
<path d="M295.663 548.998H287.289V559.535H295.663V548.998Z" fill="white"/>
<path d="M284.212 600.123H275.838V615.058H284.212V600.123Z" fill="white"/>
<path d="M295.064 588.03H286.69V598.566H295.064V588.03Z" fill="white"/>
<path d="M283.956 587.938H275.582V598.474H283.956V587.938Z" fill="white"/>
<path d="M262.167 587.754H253.793V598.291H262.167V587.754Z" fill="white"/>
<path d="M262.252 612.218L253.878 606.354L253.793 600.582H262.167L262.252 612.218Z" fill="white"/>
<path d="M251.058 587.663H242.684V598.2H251.058V587.663Z" fill="white"/>
<path d="M250.973 604.155L248.837 602.597L245.333 600.123H250.973V604.155Z" fill="white"/>
<path d="M295.235 600.215H286.861V615.149H295.235V600.215Z" fill="white"/>
<path d="M349.325 388.477H365.047L364.791 380.231L349.068 380.048L349.325 388.477Z" fill="#A3A1FF"/>
<path d="M305.233 465.897L303.695 628.71C303.695 628.71 330.782 633.199 355.221 626.602C379.659 620.006 407.857 612.859 407.857 612.859L408.797 467.455L392.391 458.843L365.731 408.176L365.047 388.385H349.239L348.726 408.176L320.699 457.835L305.233 465.897Z" fill="#E9EDFA"/>
<path d="M356.161 479.824H345.821V493.659H356.161V479.824Z" fill="#A3A1FF"/>
<path d="M370.858 480.099H359.835V493.659H370.858V480.099Z" fill="#A3A1FF"/>
<path d="M355.904 496.224H345.565V510.059H355.904V496.224Z" fill="#A3A1FF"/>
<path d="M370.601 496.499H359.578V510.059H370.601V496.499Z" fill="#A3A1FF"/>
<path d="M356.331 529.208H345.992V543.043H356.331V529.208Z" fill="#A3A1FF"/>
<path d="M331.978 529.116H321.639V542.951H331.978V529.116Z" fill="#A3A1FF"/>
<path d="M393.16 529.666H382.821V543.501H393.16V529.666Z" fill="#A3A1FF"/>
<path d="M393.501 590.595H383.162V604.43H393.501V590.595Z" fill="#A3A1FF"/>
<path d="M332.064 590.961H321.724V604.796H332.064V590.961Z" fill="#A3A1FF"/>
<path d="M371.114 529.391H360.091V542.951H371.114V529.391Z" fill="#A3A1FF"/>
<path d="M356.075 545.608H345.736V559.443H356.075V545.608Z" fill="#A3A1FF"/>
<path d="M370.858 545.792H359.835V559.352H370.858V545.792Z" fill="#A3A1FF"/>
<path d="M356.161 589.037H345.821V602.872H356.161V589.037Z" fill="#A3A1FF"/>
<path d="M370.858 589.312H359.835V602.872H370.858V589.312Z" fill="#A3A1FF"/>
<path d="M355.904 605.437H345.565V619.272H355.904V605.437Z" fill="#A3A1FF"/>
<path d="M370.687 605.712H359.664V619.272H370.687V605.712Z" fill="#A3A1FF"/>
<path d="M327.364 503.004C331.376 503.004 334.627 499.517 334.627 495.216C334.627 490.915 331.376 487.428 327.364 487.428C323.353 487.428 320.101 490.915 320.101 495.216C320.101 499.517 323.353 503.004 327.364 503.004Z" fill="#A3A1FF"/>
<path d="M386.068 504.745C390.079 504.745 393.331 501.258 393.331 496.957C393.331 492.656 390.079 489.169 386.068 489.169C382.056 489.169 378.804 492.656 378.804 496.957C378.804 501.258 382.056 504.745 386.068 504.745Z" fill="#A3A1FF"/>
<path d="M305.233 465.897H321.041L320.785 457.652L304.977 457.468L305.233 465.897Z" fill="#A3A1FF"/>
<path d="M392.989 467.455H408.797L408.54 459.209L392.732 459.026L392.989 467.455Z" fill="#A3A1FF"/>
<path d="M357.784 461.958C364.674 461.958 370.26 455.969 370.26 448.581C370.26 441.193 364.674 435.204 357.784 435.204C350.894 435.204 345.309 441.193 345.309 448.581C345.309 455.969 350.894 461.958 357.784 461.958Z" fill="#A3A1FF"/>
<path d="M402.303 468.097L403.243 538.371C403.243 538.371 405.635 613.684 405.892 613.409C411.531 607.179 498.262 600.857 508.259 600.582L505.952 453.987L498.433 453.712L461.775 404.969L448.274 404.236L402.303 468.097Z" fill="#BAC6F2"/>
<path d="M402.303 468.096L448.274 406.16L453.401 406.343L459.212 406.71L462.373 407.076L498.347 453.62L505.867 453.987V451.146L498.689 450.872L464.168 405.702L464.424 388.202L447.762 387.286L447.078 405.152L402.303 459.118V468.096Z" fill="#E9EDFA"/>
<path d="M439.9 454.72H431.526V465.256H439.9V454.72Z" fill="white"/>
<path d="M476.814 454.811H468.44V465.348H476.814V454.811Z" fill="white"/>
<path d="M463.228 454.72H454.854V465.256H463.228V454.72Z" fill="white"/>
<path d="M452.119 454.628H443.745V465.164H452.119V454.628Z" fill="white"/>
<path d="M439.9 470.753H431.526V481.29H439.9V470.753Z" fill="white"/>
<path d="M476.814 470.845H468.44V481.382H476.814V470.845Z" fill="white"/>
<path d="M463.228 470.753H454.854V481.29H463.228V470.753Z" fill="white"/>
<path d="M452.119 470.753H443.745V481.29H452.119V470.753Z" fill="white"/>
<path d="M420.247 525.726H411.873V536.263H420.247V525.726Z" fill="white"/>
<path d="M431.099 513.633H422.725V524.169H431.099V513.633Z" fill="white"/>
<path d="M419.991 513.541H411.617V524.077H419.991V513.541Z" fill="white"/>
<path d="M431.185 525.818H422.811V536.355H431.185V525.818Z" fill="white"/>
<path d="M452.974 525.91H444.6V536.446H452.974V525.91Z" fill="white"/>
<path d="M463.912 513.907H455.537V524.444H463.912V513.907Z" fill="white"/>
<path d="M452.718 513.816H444.344V524.352H452.718V513.816Z" fill="white"/>
<path d="M463.997 526.093H455.623V536.63H463.997V526.093Z" fill="white"/>
<path d="M484.761 526.277H476.387V536.813H484.761V526.277Z" fill="white"/>
<path d="M495.613 514.182H487.239V524.719H495.613V514.182Z" fill="white"/>
<path d="M484.505 514.182H476.131V524.719H484.505V514.182Z" fill="white"/>
<path d="M495.698 526.368H487.324V536.904H495.698V526.368Z" fill="white"/>
<path d="M420.418 571.721H412.044V582.257H420.418V571.721Z" fill="white"/>
<path d="M431.27 559.627H422.896V570.164H431.27V559.627Z" fill="white"/>
<path d="M420.162 559.627H411.788V570.164H420.162V559.627Z" fill="white"/>
<path d="M431.441 571.812H423.067V582.349H431.441V571.812Z" fill="white"/>
<path d="M453.23 571.996H444.856V582.532H453.23V571.996Z" fill="white"/>
<path d="M464.082 559.901H455.708V570.438H464.082V559.901Z" fill="white"/>
<path d="M452.974 559.81H444.6V570.346H452.974V559.81Z" fill="white"/>
<path d="M464.253 572.087H455.879V582.624H464.253V572.087Z" fill="white"/>
<path d="M485.017 572.362H476.643V582.899H485.017V572.362Z" fill="white"/>
<path d="M495.869 560.268H487.495V570.805H495.869V560.268Z" fill="white"/>
<path d="M484.761 560.177H476.387V570.713H484.761V560.177Z" fill="white"/>
<path d="M495.955 572.454H487.581V582.99H495.955V572.454Z" fill="white"/>
<path d="M515.608 434.654C515.608 434.654 537.739 396.906 539.448 393.241C541.157 389.576 540.303 374.917 540.303 374.917H534.321C534.321 374.917 539.448 359.341 553.975 359.341C568.501 359.341 572.773 366.671 574.482 370.336C576.191 374.001 575.337 375.833 575.337 375.833H570.21V390.493L594.99 434.471H605.244L608.576 603.88C608.576 603.88 511.079 599.024 509.028 600.49C508.345 600.948 508.43 596.184 508.345 595.359C507.918 591.786 504.243 462.232 506.123 434.837C506.123 434.837 515.693 434.654 515.608 434.654Z" fill="#E9EDFA"/>
<path d="M578.328 488.07H590.29V469.745C590.29 469.745 584.309 459.667 578.328 469.745V488.07Z" fill="white"/>
<path d="M520.906 489.536H532.869V471.211C532.869 471.211 526.887 461.133 520.906 471.211V489.536Z" fill="white"/>
<path d="M520.906 536.904H532.869V518.58C532.869 518.58 526.887 508.501 520.906 518.58V536.904Z" fill="white"/>
<path d="M549.446 537.454H561.409V519.129C561.409 519.129 555.427 509.051 549.446 519.129V537.454Z" fill="white"/>
<path d="M577.986 538.004H589.949V519.679C589.949 519.679 583.967 509.601 577.986 519.679V538.004Z" fill="white"/>
<path d="M521.589 582.165H533.552V563.841C533.552 563.841 527.571 553.762 521.589 563.841V582.165Z" fill="white"/>
<path d="M550.215 582.715H562.178V564.391C562.178 564.391 556.196 554.312 550.215 564.391V582.715Z" fill="white"/>
<path d="M578.755 583.265H590.718V564.94C590.718 564.94 584.736 554.862 578.755 564.94V583.265Z" fill="white"/>
<path d="M582.087 450.779C586.24 450.779 589.607 447.17 589.607 442.717C589.607 438.264 586.24 434.654 582.087 434.654C577.934 434.654 574.568 438.264 574.568 442.717C574.568 447.17 577.934 450.779 582.087 450.779Z" fill="#E9EDFA"/>
<path d="M528.084 449.589C532.236 449.589 535.603 445.979 535.603 441.526C535.603 437.073 532.236 433.463 528.084 433.463C523.931 433.463 520.564 437.073 520.564 441.526C520.564 445.979 523.931 449.589 528.084 449.589Z" fill="#E9EDFA"/>
<path d="M555.684 489.536C559.836 489.536 563.203 485.926 563.203 481.473C563.203 477.02 559.836 473.41 555.684 473.41C551.531 473.41 548.164 477.02 548.164 481.473C548.164 485.926 551.531 489.536 555.684 489.536Z" fill="#E9EDFA"/>
<path d="M555.085 414.131C559.238 414.131 562.605 410.521 562.605 406.068C562.605 401.615 559.238 398.005 555.085 398.005C550.933 398.005 547.566 401.615 547.566 406.068C547.566 410.521 550.933 414.131 555.085 414.131Z" fill="#E9EDFA"/>
<path d="M542.524 436.211C542.524 434.104 543.293 432.088 544.49 430.531C546.882 427.324 550.471 425.4 554.231 425.217C562.178 425.034 565.681 432.18 566.108 435.112C566.877 439.51 566.706 461.866 566.706 461.866H542.183L542.354 455.269L542.524 436.211Z" fill="white"/>
<path d="M605.671 466.539L608.234 604.155C608.234 604.155 636.347 604.429 653.608 606.72C668.647 608.736 704.877 606.903 704.877 606.903L706.586 466.997L605.757 466.264" fill="#BAC6F2"/>
<path d="M604.987 466.539L706.586 466.997L706.159 440.976H676.081C676.081 440.976 672.321 425.4 658.308 425.4C641.132 425.4 638.227 441.801 638.227 441.801L604.902 441.434L604.987 466.539Z" fill="#BAC6F2"/>
<path d="M633.613 481.29H615.669V502.18H633.613V481.29Z" fill="white"/>
<path d="M666.083 481.015H648.139V501.905H666.083V481.015Z" fill="white"/>
<path d="M698.127 481.29H680.182V502.18H698.127V481.29Z" fill="white"/>
<path d="M698.383 520.596H680.439V541.486H698.383V520.596Z" fill="white"/>
<path d="M698.639 566.315H680.695V587.205H698.639V566.315Z" fill="white"/>
<path d="M666.083 565.49H648.139V586.38H666.083V565.49Z" fill="white"/>
<path d="M633.613 565.032H615.669V585.922H633.613V565.032Z" fill="white"/>
<path d="M665.4 519.954H647.456V540.844H665.4V519.954Z" fill="white"/>
<path d="M665.4 519.954H647.456V540.844H665.4V519.954Z" fill="white"/>
<path d="M633.784 520.87H615.839V541.76H633.784V520.87Z" fill="white"/>
<path d="M657.282 456.094C662.756 456.094 667.194 451.336 667.194 445.466C667.194 439.596 662.756 434.838 657.282 434.838C651.808 434.838 647.37 439.596 647.37 445.466C647.37 451.336 651.808 456.094 657.282 456.094Z" fill="white"/>
<path d="M750.165 348.621H765.888L765.717 340.375L749.909 340.101L750.165 348.621Z" fill="#A3A2FF"/>
<path d="M706.073 426.042L704.194 607.086C704.194 607.086 737.946 597.924 759.394 586.563C779.645 575.752 789.301 552.022 791.608 547.441C791.864 546.983 792.035 546.433 792.206 545.883L803.912 508.501C804.254 507.494 804.511 506.394 804.596 505.386L809.979 468.554L812.543 451.696C812.714 450.688 812.714 449.588 812.543 448.581L809.723 428.515C809.638 428.057 809.381 427.691 809.039 427.416L793.231 419.078L766.571 368.32L765.888 348.53H750.08L749.567 368.32L721.54 417.979L706.073 426.042Z" fill="#E9EDFA"/>
<path d="M757.001 439.969H746.662V453.803H757.001V439.969Z" fill="#A3A2FF"/>
<path d="M771.698 440.243H760.675V453.803H771.698V440.243Z" fill="#A3A2FF"/>
<path d="M756.745 456.369H746.405V470.204H756.745V456.369Z" fill="#A3A2FF"/>
<path d="M771.442 456.644H760.419V470.204H771.442V456.644Z" fill="#A3A2FF"/>
<path d="M757.172 489.261H746.833V503.096H757.172V489.261Z" fill="#A3A2FF"/>
<path d="M732.819 489.261H722.48V503.096H732.819V489.261Z" fill="#A3A2FF"/>
<path d="M794.086 489.811H783.746V503.646H794.086V489.811Z" fill="#A3A2FF"/>
<path d="M787.079 556.969L783.917 561.825L784.345 549.64L790.582 549.365L787.079 556.969Z" fill="#A3A2FF"/>
<path d="M732.904 551.106H722.565V564.941H732.904V551.106Z" fill="#A3A2FF"/>
<path d="M771.955 489.536H760.932V503.096H771.955V489.536Z" fill="#A3A2FF"/>
<path d="M757.001 505.753H746.662V519.588H757.001V505.753Z" fill="#A3A2FF"/>
<path d="M771.698 505.936H760.675V519.496H771.698V505.936Z" fill="#A3A2FF"/>
<path d="M757.001 549.182H746.662V563.017H757.001V549.182Z" fill="#A3A2FF"/>
<path d="M771.698 549.457H760.675V563.017H771.698V549.457Z" fill="#A3A2FF"/>
<path d="M756.83 565.582H746.491V579.417H756.83V565.582Z" fill="#A3A2FF"/>
<path d="M770.673 578.409L769.477 579.417H760.504V565.857H771.527V577.585L770.673 578.409Z" fill="#A3A2FF"/>
<path d="M728.205 463.149C732.216 463.149 735.468 459.662 735.468 455.361C735.468 451.06 732.216 447.573 728.205 447.573C724.193 447.573 720.942 451.06 720.942 455.361C720.942 459.662 724.193 463.149 728.205 463.149Z" fill="#A3A2FF"/>
<path d="M786.908 464.89C790.92 464.89 794.171 461.403 794.171 457.102C794.171 452.801 790.92 449.314 786.908 449.314C782.897 449.314 779.645 452.801 779.645 457.102C779.645 461.403 782.897 464.89 786.908 464.89Z" fill="#A3A2FF"/>
<path d="M706.073 426.042H721.882L721.625 417.796L705.817 417.613L706.073 426.042Z" fill="#A3A2FF"/>
<path d="M793.915 427.599H809.637L808.612 422.377L807.928 419.262L793.659 419.17L793.915 427.599Z" fill="#A3A2FF"/>
<path d="M758.624 422.102C765.515 422.102 771.1 416.113 771.1 408.725C771.1 401.338 765.515 395.349 758.624 395.349C751.734 395.349 746.149 401.338 746.149 408.725C746.149 416.113 751.734 422.102 758.624 422.102Z" fill="#A3A2FF"/>
<path d="M95.6714 252.218L225.983 252.123C225.983 252.123 230.892 251.818 230.725 245.907L230.456 234.194L90.1014 234.291L90.4618 248.503C91.128 250.782 93.2677 252.337 95.6714 252.218Z" fill="#BAC5F4"/>
<path d="M88.1745 143.91L90.3509 238.097L231.352 236.633L229.013 141.107C229.013 141.107 229.714 135.633 224.214 135.701L93.2404 135.758C93.3244 135.779 87.404 135.74 88.1745 143.91Z" fill="#BAC5F4"/>
<path d="M149.819 277.909L149.188 251.61L169.859 252.466L170.443 275.59L149.819 277.909Z" fill="#BAC5F4"/>
<path d="M117.104 275.439L202.349 275.307L202.54 279.835L117.229 279.86L117.104 275.439Z" fill="#BAC5F4"/>
<path d="M159.042 240.636C161.34 240.67 163.251 242.556 163.277 244.978C163.303 247.401 161.562 249.369 159.265 249.335C156.967 249.301 155.056 247.415 155.03 244.993C155.004 242.57 156.829 240.624 159.042 240.636Z" fill="white"/>
<path d="M223.916 138.793L93.2576 138.701L95.378 233.229L226.036 233.321L223.916 138.793Z" fill="#F8F8FF"/>
<path d="M99.9027 145.426C101.052 145.443 101.998 146.43 102.011 147.641C102.024 148.852 101.111 149.826 99.9626 149.809C98.8137 149.792 97.8674 148.805 97.8544 147.593C97.9071 146.492 98.8379 145.431 99.9027 145.426Z" fill="#FA5F5D"/>
<path d="M106.93 145.374C108.079 145.391 109.025 146.378 109.038 147.589C109.051 148.8 108.139 149.774 106.99 149.757C105.841 149.74 104.895 148.753 104.882 147.542C104.869 146.33 105.781 145.357 106.93 145.374Z" fill="#FDBC4E"/>
<path d="M114.245 145.205C115.394 145.222 116.34 146.209 116.353 147.42C116.366 148.632 115.454 149.605 114.305 149.588C113.156 149.571 112.21 148.584 112.197 147.373C112.249 146.271 113.18 145.21 114.245 145.205Z" fill="#37CD58"/>
<path d="M143.215 161.063C143.144 162.241 142.255 163.118 141.13 163.014L115.911 162.997C114.582 163.025 113.287 162.049 113.321 161.045L113.206 156.966C113.175 155.854 114.352 154.867 115.765 154.861L140.9 154.856C141.978 154.764 143.022 155.675 143.22 156.831L143.202 156.918L143.215 161.063Z" fill="url(#paint0_linear)"/>
<path d="M204.342 187.725C204.253 188.991 203.262 189.934 202.119 189.917L116.194 190C114.865 190.028 113.589 188.964 113.558 187.851L113.078 167.844C113.065 166.644 114.326 165.678 115.552 165.716L201.477 165.634C202.638 165.563 203.766 166.496 203.844 167.805L204.342 187.725Z" fill="url(#paint1_linear)"/>
<path d="M142.123 205.774C142.136 206.979 141.226 207.948 140.081 207.931L116.394 207.949C114.979 207.956 113.784 206.909 113.753 205.791L113.487 194.809C113.474 193.604 114.737 192.634 115.966 192.672L139.467 192.699C140.547 192.606 141.592 193.522 141.773 194.771L141.755 194.859L142.123 205.774Z" fill="url(#paint2_linear)"/>
<path d="M172.838 205.27C172.851 206.476 171.941 207.444 170.796 207.427L147.109 207.446C145.694 207.452 144.499 206.405 144.468 205.287L144.201 194.306C144.189 193.1 145.452 192.13 146.681 192.168L170.182 192.195C171.262 192.102 172.307 193.018 172.488 194.267L172.47 194.355L172.838 205.27Z" fill="url(#paint3_linear)"/>
<path d="M204.526 204.725C204.437 205.997 203.444 206.944 202.298 206.927L178.797 206.901C177.531 207.038 176.42 206.012 176.239 204.764L175.973 193.781C175.997 192.4 177.158 191.496 178.369 191.622L201.87 191.649C203.034 191.578 204.247 192.537 204.326 193.852L204.526 204.725Z" fill="url(#paint4_linear)"/>
<path d="M172.849 211.665C172.674 212.078 172.35 212.361 171.896 212.428C171.812 212.407 171.812 212.407 171.7 212.104L145.904 212.114C145.395 212.442 144.578 212.142 144.585 211.687L144.575 211.318C144.583 210.863 145.295 210.405 145.833 210.359L171.63 210.349C172.047 210.455 172.327 210.8 172.421 211.19C172.403 211.277 172.403 211.277 172.653 211.341L172.849 211.665Z" fill="#E9EDFB"/>
<path d="M172.866 215.242C172.691 215.654 172.349 216.024 171.978 216.113C171.978 216.113 171.895 216.091 171.884 215.723L146.004 215.712C145.495 216.04 144.678 215.74 144.704 215.198L144.693 214.83C144.701 214.374 145.479 214.024 145.934 213.957L171.73 213.946C172.148 214.053 172.613 214.354 172.772 214.852L172.866 215.242Z" fill="#E9EDFB"/>
<path d="M172.966 218.841C172.773 219.341 172.431 219.711 171.958 219.865C171.995 219.691 171.93 219.583 171.966 219.41L146.085 219.399C145.678 219.661 145.158 219.62 144.915 219.101C144.85 218.992 144.868 218.906 144.803 218.798L144.792 218.429C144.8 217.974 145.56 217.71 146.033 217.556L171.83 217.546C172.248 217.652 172.713 217.954 172.872 218.452L172.966 218.841Z" fill="#E9EDFB"/>
<path d="M172.983 222.428C172.771 223.015 172.411 223.472 171.967 223.908L146.08 223.897C145.55 223.487 144.787 222.926 144.73 222.362L144.72 221.994C144.727 221.538 145.459 220.992 145.942 221.207L171.745 221.197C172.116 221.109 172.413 221.368 172.507 221.758C172.489 221.845 172.471 221.931 172.536 222.04C172.536 222.04 172.536 222.04 172.787 222.104L172.983 222.428Z" fill="#E9EDFB"/>
<path d="M158.721 226.216C158.713 226.672 158.491 226.89 157.971 226.849L146.083 226.838C145.564 226.797 144.895 226.627 144.884 226.257L144.874 225.888C144.882 225.432 145.577 225.06 146.013 225.08L157.901 225.09C158.337 225.11 158.7 225.478 158.692 225.934L158.721 226.216Z" fill="#E9EDFB"/>
<path d="M204.455 211.093C203.928 211.507 204.022 211.897 203.575 211.509L177.777 211.519C177.351 211.868 176.97 211.588 176.876 211.198C176.876 211.198 176.876 211.198 177.163 211.088L177.153 210.72C176.892 210.287 177.252 209.83 177.706 209.763L203.505 209.753C203.988 209.968 203.915 210.315 204.445 210.724L204.455 211.093Z" fill="#E9EDFB"/>
<path d="M204.555 214.692C204.027 215.107 204.187 215.604 203.656 215.195L177.858 215.205C177.349 215.533 176.986 215.166 177.263 214.688L177.252 214.319C176.991 213.887 177.333 213.517 177.788 213.45L203.586 213.439C204.069 213.654 204.014 213.914 204.544 214.324L204.555 214.692Z" fill="#E9EDFB"/>
<path d="M204.552 218.359C204.025 218.774 204.166 219.358 203.654 218.862L177.856 218.872C177.347 219.2 176.984 218.833 177.261 218.355L177.25 217.986C176.989 217.554 177.313 217.271 177.785 217.117L203.583 217.106C204.067 217.321 204.012 217.581 204.542 217.991L204.552 218.359Z" fill="#E9EDFB"/>
<path d="M204.569 221.948C204.041 222.363 204.164 223.035 203.636 223.45L177.831 223.46C177.319 222.963 176.974 222.509 177.186 221.922L177.176 221.553C177.027 221.423 177.016 221.054 177.155 220.815C177.34 220.77 177.46 220.618 177.693 220.769L203.582 220.78C204.054 220.626 204.028 221.169 204.558 221.579L204.569 221.948Z" fill="#E9EDFB"/>
<path d="M190.494 225.684C190.486 226.141 190.533 226.336 190.097 226.316L178.123 226.284C177.603 226.243 177.37 226.092 177.378 225.636L177.368 225.266C177.376 224.81 177.718 224.439 178.154 224.458L190.045 224.469C190.565 224.51 190.492 224.858 190.484 225.315L190.494 225.684Z" fill="#E9EDFB"/>
<path d="M141.264 212.132C141.609 212.586 141.452 212.912 140.904 212.589L115.022 212.578C114.698 212.861 114.28 212.755 114.066 212.518C114.001 212.409 114.019 212.323 113.87 212.193L113.86 211.825C114.053 211.325 114.395 210.955 114.951 210.822L140.75 210.812C141.233 211.027 141.429 211.351 141.152 211.829L141.264 212.132Z" fill="#E9EDFB"/>
<path d="M141.281 215.711C141.626 216.164 141.451 216.577 140.986 216.276L115.103 216.265C114.575 216.679 114.129 216.291 113.988 215.706L113.977 215.338C114.069 214.903 114.578 214.576 115.051 214.422L140.85 214.412C141.333 214.626 141.547 214.864 141.187 215.321L141.281 215.711Z" fill="#E9EDFB"/>
<path d="M141.362 219.398C141.706 219.851 141.597 220.372 141.067 219.963L115.184 219.952C114.656 220.366 114.21 219.978 114.069 219.393L114.058 219.024C114.15 218.59 114.641 218.35 115.132 218.109L140.931 218.099C141.414 218.313 141.628 218.551 141.268 219.008L141.362 219.398Z" fill="#E9EDFB"/>
<path d="M133.608 221.826L141.013 221.792C141.485 221.638 141.728 222.158 141.368 222.615L141.378 222.984C141.723 223.438 141.595 224.046 141.068 224.461L115.179 224.45C114.631 224.127 114.304 223.586 113.996 222.958L113.985 222.589C114.095 222.067 114.521 221.718 115.041 221.759L133.608 221.826Z" fill="#E9EDFB"/>
<path d="M128.627 226.692C128.619 227.148 128.397 227.366 127.878 227.325L115.015 227.341C114.495 227.299 114.077 227.193 114.085 226.737L114.075 226.368C114.166 225.933 114.592 225.583 115.028 225.603L127.891 225.588C128.327 225.607 128.69 225.975 128.7 226.344C128.7 226.344 128.7 226.344 128.682 226.431L128.627 226.692Z" fill="#E9EDFB"/>
<path d="M728.557 140.125L727.105 215.255C727.105 215.255 713.433 209.483 706.17 211.132L728.557 140.125Z" fill="url(#paint5_linear)"/>
<path d="M728.557 140.125L706.17 211.132C706.17 211.132 665.154 196.656 632 196.015L655.755 126.016L728.557 140.125Z" fill="#FCFCFC"/>
<path d="M680.449 168.987L690.532 171.186L693.694 161.932L683.696 159.824L680.449 168.987Z" fill="#58CAEA"/>
<path d="M664.385 165.23L674.554 167.52L677.63 158.175L667.718 156.159L664.385 165.23Z" fill="#58CAEA"/>
<path d="M649.175 162.298L659.258 164.589L662.42 155.243L652.508 153.228L649.175 162.298Z" fill="#58CAEA"/>
<path d="M644.903 174.85L655.071 177.141L658.147 167.795L648.235 165.78L644.903 174.85Z" fill="#58CAEA"/>
<path d="M676.092 180.897L686.175 183.188L689.336 173.842L679.424 171.826L676.092 180.897Z" fill="#58CAEA"/>
<path d="M691.729 184.562L701.812 186.853L704.973 177.507L695.061 175.492L691.729 184.562Z" fill="#58CAEA"/>
<path d="M686.944 197.481L697.027 199.772L700.188 190.426L690.191 188.41L686.944 197.481Z" fill="#58CAEA"/>
<path d="M671.392 194.182L681.475 196.381L684.636 187.127L674.639 185.112L671.392 194.182Z" fill="#58CAEA"/>
<path d="M655.328 190.976L665.411 193.175L668.487 183.829L658.575 181.813L655.328 190.976Z" fill="#58CAEA"/>
<path d="M660.198 177.782L670.281 180.073L673.357 170.727L663.445 168.711L660.198 177.782Z" fill="url(#paint6_linear)"/>
<path d="M728.557 140.125L722.234 160.282L649.09 145.623L655.84 126.107L728.557 140.125Z" fill="url(#paint7_linear)"/>
<path d="M709.417 131.513L703.862 130.322L701.726 139.301L707.195 140.4L709.417 131.513Z" fill="url(#paint8_linear)"/>
<path d="M674.639 125.099L669.854 124L667.803 132.429L672.588 133.345L674.639 125.099Z" fill="url(#paint9_linear)"/>
<path d="M339.025 308.036L346.459 308.585C346.459 308.585 349.108 299.332 355.432 296.949L356.799 286.413C356.799 286.413 363.122 291.635 364.575 292.368C366.027 293.101 380.126 288.154 394.14 300.431C405.932 310.784 401.232 325.169 399.438 329.475C399.181 330.208 398.669 330.941 398.156 331.582C396.874 333.048 394.396 335.889 393.115 336.897C391.406 338.271 392.773 347.433 390.722 347.891C389.184 348.166 387.048 340.928 385.51 341.203C377.221 342.944 368.591 341.936 360.815 338.454C360.302 338.179 359.704 338.362 359.362 338.912C358.508 340.287 356.884 342.76 355.688 343.31C354.064 344.135 354.919 337.263 353.637 335.98C352.27 334.698 338 317.015 338 317.015L339.025 308.036Z" fill="url(#paint10_linear)"/>
<path d="M400.634 318.572C400.634 318.572 407.299 314.816 410.033 318.755C412.768 322.695 411.828 326.085 409.179 326.635C407.214 327.001 404.565 323.062 406.188 321.046C407.812 319.03 410.204 318.114 412.597 320.405C414.989 322.604 415.673 326.635 415.588 328.742" stroke="#E5A4ED" stroke-width="1.14092" stroke-miterlimit="10"/>
<path d="M354.663 314.083C356.22 314.083 357.482 312.729 357.482 311.059C357.482 309.389 356.22 308.036 354.663 308.036C353.105 308.036 351.843 309.389 351.843 311.059C351.843 312.729 353.105 314.083 354.663 314.083Z" fill="#E5A4ED"/>
<path d="M368.163 294.75C368.163 294.75 379.614 293.193 386.279 297.682" stroke="#E5A4ED" stroke-width="0.28523" stroke-miterlimit="10"/>
<path d="M380.468 284.489C386.603 284.489 391.576 279.156 391.576 272.578C391.576 266 386.603 260.667 380.468 260.667C374.333 260.667 369.36 266 369.36 272.578C369.36 279.156 374.333 284.489 380.468 284.489Z" fill="url(#paint11_linear)"/>
<path d="M380.383 282.29C385.385 282.29 389.44 277.942 389.44 272.578C389.44 267.214 385.385 262.866 380.383 262.866C375.38 262.866 371.325 267.214 371.325 272.578C371.325 277.942 375.38 282.29 380.383 282.29Z" stroke="url(#paint12_linear)" stroke-width="0.28523" stroke-miterlimit="10"/>
<path d="M379.427 265.823C379.444 265.691 379.411 265.573 379.33 265.47C379.25 265.366 379.105 265.262 378.896 265.157C378.603 265.02 378.397 264.867 378.275 264.698C378.156 264.528 378.111 264.327 378.14 264.097C378.169 263.862 378.261 263.679 378.416 263.549C378.572 263.418 378.771 263.356 379.013 263.362L379.072 262.892L379.392 262.938L379.332 263.41C379.568 263.478 379.741 263.606 379.853 263.794C379.966 263.983 380.004 264.223 379.967 264.517L379.573 264.46C379.598 264.258 379.57 264.091 379.49 263.958C379.409 263.825 379.287 263.747 379.125 263.724C378.955 263.699 378.819 263.724 378.718 263.8C378.617 263.874 378.557 263.99 378.537 264.148C378.518 264.294 378.551 264.417 378.634 264.518C378.719 264.618 378.865 264.719 379.073 264.822C379.283 264.924 379.443 265.027 379.553 265.13C379.666 265.233 379.743 265.344 379.786 265.466C379.83 265.587 379.843 265.724 379.824 265.876C379.793 266.118 379.696 266.302 379.532 266.428C379.369 266.555 379.155 266.613 378.89 266.602L378.839 267.012L378.522 266.966L378.573 266.556C378.311 266.493 378.114 266.368 377.984 266.182C377.855 265.994 377.808 265.758 377.844 265.475L378.24 265.532C378.215 265.731 378.248 265.892 378.338 266.015C378.429 266.137 378.57 266.212 378.761 266.24C378.949 266.267 379.101 266.243 379.22 266.169C379.338 266.094 379.407 265.979 379.427 265.823Z" fill="#E5A4ED"/>
<path d="M395.934 260.759C399.993 260.759 403.283 257.231 403.283 252.879C403.283 248.528 399.993 245 395.934 245C391.876 245 388.586 248.528 388.586 252.879C388.586 257.231 391.876 260.759 395.934 260.759Z" fill="url(#paint13_linear)"/>
<path d="M395.934 259.293C399.238 259.293 401.916 256.421 401.916 252.879C401.916 249.337 399.238 246.466 395.934 246.466C392.631 246.466 389.953 249.337 389.953 252.879C389.953 256.421 392.631 259.293 395.934 259.293Z" stroke="url(#paint14_linear)" stroke-width="0.28523" stroke-miterlimit="10"/>
<path d="M395.392 247.814C395.403 247.728 395.381 247.65 395.328 247.582C395.275 247.514 395.18 247.445 395.042 247.377C394.85 247.286 394.714 247.186 394.634 247.074C394.555 246.962 394.526 246.83 394.545 246.678C394.564 246.524 394.625 246.404 394.727 246.318C394.829 246.232 394.96 246.191 395.12 246.195L395.159 245.885L395.369 245.916L395.329 246.227C395.485 246.271 395.599 246.355 395.672 246.479C395.747 246.603 395.772 246.762 395.747 246.955L395.488 246.917C395.505 246.785 395.486 246.674 395.433 246.587C395.38 246.5 395.3 246.448 395.193 246.433C395.081 246.417 394.992 246.433 394.925 246.483C394.859 246.532 394.819 246.608 394.806 246.712C394.794 246.808 394.815 246.889 394.87 246.956C394.926 247.022 395.022 247.088 395.159 247.156C395.297 247.223 395.402 247.291 395.475 247.359C395.549 247.426 395.6 247.5 395.628 247.58C395.657 247.66 395.666 247.749 395.653 247.849C395.633 248.009 395.569 248.13 395.461 248.213C395.354 248.296 395.213 248.334 395.039 248.327L395.005 248.597L394.796 248.567L394.83 248.297C394.657 248.256 394.528 248.174 394.442 248.051C394.357 247.927 394.326 247.772 394.35 247.586L394.611 247.623C394.594 247.754 394.616 247.86 394.675 247.941C394.735 248.021 394.828 248.071 394.954 248.089C395.077 248.107 395.178 248.091 395.256 248.042C395.333 247.993 395.379 247.917 395.392 247.814Z" fill="#E5A4ED"/>
<path d="M369.36 259.843C372.238 259.843 374.572 257.34 374.572 254.254C374.572 251.167 372.238 248.665 369.36 248.665C366.481 248.665 364.147 251.167 364.147 254.254C364.147 257.34 366.481 259.843 369.36 259.843Z" fill="url(#paint15_linear)"/>
<path d="M369.36 258.835C371.719 258.835 373.632 256.784 373.632 254.254C373.632 251.724 371.719 249.673 369.36 249.673C367 249.673 365.087 251.724 365.087 254.254C365.087 256.784 367 258.835 369.36 258.835Z" stroke="url(#paint16_linear)" stroke-width="0.28523" stroke-miterlimit="10"/>
<path d="M368.896 251.21C368.904 251.148 368.889 251.092 368.85 251.044C368.813 250.995 368.744 250.946 368.646 250.897C368.508 250.832 368.411 250.76 368.354 250.68C368.297 250.6 368.276 250.505 368.29 250.397C368.304 250.286 368.347 250.2 368.42 250.139C368.493 250.077 368.587 250.048 368.701 250.051L368.729 249.829L368.879 249.851L368.851 250.074C368.962 250.106 369.044 250.166 369.097 250.254C369.15 250.343 369.168 250.457 369.15 250.595L368.965 250.568C368.977 250.473 368.964 250.394 368.926 250.332C368.888 250.269 368.83 250.232 368.754 250.221C368.674 250.21 368.61 250.222 368.562 250.257C368.515 250.292 368.486 250.347 368.477 250.421C368.468 250.49 368.483 250.548 368.523 250.595C368.563 250.642 368.631 250.69 368.729 250.739C368.828 250.787 368.904 250.835 368.956 250.884C369.008 250.932 369.045 250.985 369.065 251.042C369.086 251.099 369.092 251.163 369.083 251.235C369.069 251.349 369.023 251.435 368.945 251.495C368.869 251.555 368.768 251.582 368.643 251.577L368.619 251.77L368.47 251.748L368.494 251.555C368.37 251.526 368.278 251.467 368.216 251.379C368.156 251.291 368.134 251.18 368.15 251.046L368.337 251.073C368.325 251.167 368.341 251.243 368.383 251.3C368.426 251.358 368.493 251.393 368.583 251.406C368.671 251.419 368.743 251.408 368.798 251.373C368.854 251.338 368.887 251.283 368.896 251.21Z" fill="#E5A4ED"/>
<g clip-path="url(#clip1)">
<path d="M554.452 597.965L552.726 597.913L543.761 598.016C543.761 598.016 541.796 607.858 540.741 611.959C540.693 612.216 540.453 612.882 540.358 613.395C540.214 614.112 540.166 614.83 540.166 615.548C540.358 619.29 541.652 622.417 544.768 624.109C548.172 625.954 550.808 627.646 554.452 624.109C558.095 620.572 558.574 618.316 557.184 612.164C555.794 606.013 555.315 598.17 554.452 597.965Z" fill="#4B49BB"/>
<path d="M591.988 610.217C585.804 608.115 581.681 599.144 581.681 599.144L571.134 598.477C571.134 598.477 570.559 607.602 570.272 612.216C569.888 618.367 570.847 621.084 574.634 620.777C579.62 620.367 599.898 622.315 603.11 620.11C607.28 617.24 597.741 612.165 591.988 610.217Z" fill="#4B49BB"/>
<path d="M528.66 435.973V449.456L543.905 598.118H554.691C554.691 598.118 558.431 496.156 558.431 492.619C558.431 489.082 559.389 478.009 559.389 478.009C559.389 478.009 572.956 519.891 573.196 523.377C573.436 526.863 570.991 598.99 570.991 598.99L581.777 599.451C581.777 599.451 591.221 550.649 591.221 546.035C591.221 541.421 594.433 517.43 593.953 512.817C593.474 508.203 585.468 436.332 585.468 436.332L568.929 435.871L528.66 435.973Z" fill="url(#paint17_linear)"/>
<path d="M598.604 420.338L598.46 420.133C598.508 420.287 598.556 420.389 598.604 420.338ZM566.916 407.266L560.876 409.932L560.54 418.852L567.203 421.671C567.203 421.62 574.49 421.363 574.49 421.312C574.538 420.953 577.367 421.056 578.661 421.927L601.24 413.623L602.055 407.83C602.055 407.83 603.733 415.109 596.159 400.448L566.916 407.266ZM593.906 377.841L593.426 374.919L592.276 374.714L593.906 377.841ZM552.151 300.178C549.37 301.408 548.028 305.765 548.028 305.765C548.028 305.765 546.686 304.894 546.686 307.354C546.686 309.815 547.836 315.351 548.651 316.787C550.089 319.196 551.384 321.657 552.534 324.22C553.637 326.783 553.253 332.012 552.103 332.781C550.952 333.55 530.434 353.235 530.434 353.235L513.512 408.804V411.008L516.1 411.982L518.785 414.443C519.025 414.494 522.428 416.493 522.908 416.852C525.592 418.288 528.469 419.364 531.393 420.082C533.311 420.492 541.796 420.287 541.796 420.287L550.377 420.082L548.891 408.394L536.187 408.24L518.833 407.317L536.427 364.051L591.94 374.663C582.065 355.593 570.991 334.165 570.032 331.909C569.217 330.064 570.08 325.655 570.559 323.348C570.991 321.247 571.949 318.683 572.86 317.915C573.771 317.146 575.401 313.762 575.401 312.276C575.401 310.789 575.785 304.996 574.634 306.227C574.298 306.585 572.956 304.381 572.477 302.177C571.71 298.998 569.648 296.743 567.251 294.692C567.251 294.692 555.027 298.998 552.294 300.229" fill="url(#paint18_linear)"/>
<path d="M530.914 341.29C528.229 343.238 525.736 345.853 524.825 349.236C523.915 352.62 517.443 378.969 516.58 382.301C514.471 390.452 513.224 392.81 510.731 402.396C507.663 414.187 514.71 415.981 521.901 417.724C529.38 419.518 529.428 420.287 531.201 420.287C531.489 420.287 540.358 422.235 540.645 416.852C540.837 413.469 540.262 408.086 539.063 408.24C536.331 408.65 527.51 406.138 527.079 405.831C526.503 405.421 528.996 398.039 530.434 393.476C531.489 390.093 535.564 376.047 536.475 373.432C536.954 371.997 534.173 387.068 532.496 401.832C532.448 402.396 531.777 408.137 531.968 408.137C533.982 408.137 539.495 408.24 541.221 408.445C548.987 409.419 550.473 413.366 549.993 416.545C549.13 422.081 530.242 419.518 530.338 420.236C530.338 420.236 527.079 435.922 528.9 436.896C530.482 437.768 551.671 447.2 556.177 449.045C556.657 449.25 557.232 448.994 557.424 448.43C557.424 448.43 557.424 448.43 557.424 448.379L560.3 439.562C560.348 439.459 560.444 439.408 560.54 439.459C560.588 439.459 560.636 439.51 560.636 439.562L563.368 449.199C563.416 449.455 563.608 449.661 563.8 449.763H564.998L588.536 444.329C588.536 444.329 588.44 434.384 588.393 421.671C588.393 420.389 588.201 415.673 587.338 416.545C586.475 417.416 566.82 420.184 564.663 419.21C560.109 417.16 561.307 412.085 562.889 409.983C564.711 407.574 587.913 406.395 588.009 404.6C588.393 396.808 587.817 376.354 587.434 378.815C586.858 382.66 573.292 403.678 573.292 407.317C573.292 410.957 573.052 420.184 573.052 420.184L595.344 418.339C595.344 418.339 602.822 415.571 603.493 410.957C604.164 406.343 603.349 404.293 603.062 397.423C602.87 393.066 597.117 366.871 595.487 359.438C595.248 358.31 595.104 357.182 595.008 356.054C594.816 352.978 593.666 345.802 587.482 342.675C579.811 338.779 573.819 335.703 572.285 335.703C570.847 335.703 566.916 344.93 564.854 347.545C563.944 348.724 564.135 349.287 562.937 351.03C562.314 351.953 561.163 352.107 560.3 351.492C560.108 351.338 559.965 351.133 559.821 350.928C559.15 349.903 558.574 348.775 558.047 347.647C557.136 345.699 550.089 334.575 550.089 334.575C550.089 334.575 533.598 339.291 530.914 341.29Z" fill="url(#paint19_linear)"/>
<path d="M567.203 294.744C567.203 294.744 552.151 300.741 551.096 301.613C550.041 302.484 548.028 305.765 548.028 305.765C548.028 305.765 546.973 305.15 546.733 306.842C546.733 306.842 545.199 303.458 545.008 301.562C544.816 299.665 545.008 294.795 547.884 291.565C550.76 288.336 556.561 284.081 560.156 284.645C563.752 285.209 565.286 285.67 567.539 288.079C569.792 290.489 571.71 291.206 572.381 291.565C573.052 291.924 575.641 293.923 576.072 297.666C576.504 301.408 575.305 308.892 575.305 308.892C575.305 308.892 575.641 305.97 574.538 306.893C573.771 307.508 572.668 304.842 572.333 303.253C571.901 301.715 568.018 295.154 567.203 294.744Z" fill="url(#paint20_linear)"/>
<g opacity="0.07">
<path d="M572.237 335.754C572.141 335.447 573.867 336.831 571.854 335.293C569.025 333.088 570.367 324.066 570.367 324.066C569.313 326.424 567.491 328.27 565.238 329.192C561.643 330.628 560.54 329.551 566.101 332.986C571.566 336.369 568.738 337.548 568.354 342.008" fill="white"/>
</g>
<g opacity="0.07">
<path d="M583.263 367.64L590.742 397.936C590.742 397.936 590.694 403.319 589.207 404.139C587.721 404.959 583.023 405.472 581.921 405.985C580.818 406.497 569.361 409.06 572.333 404.754C573.004 403.78 588.536 397.987 581.585 391.887C574.634 385.787 575.88 377.328 579.236 371.484C582.592 365.64 581.873 360.668 581.873 360.668L583.263 367.64Z" fill="black"/>
</g>
<g opacity="0.07">
<path d="M551.575 447.508C551.575 447.508 545.104 484.212 548.459 498.873C553.541 521.121 546.206 551.213 546.206 565.669C546.206 575.05 549.658 600.989 549.897 611.55C549.945 614.728 552.103 620.879 550.521 622.315C549.85 622.93 545.727 621.495 543.474 620.367C542.275 619.752 541.604 618.419 541.748 617.086L543.09 610.832L545.008 602.527L531.585 468.218C531.585 468.218 527.27 438.332 529.715 438.229C532.16 438.127 551.623 447.508 551.575 447.508Z" fill="black"/>
</g>
<path d="M545.439 398.141L570.799 401.525C571.326 401.679 571.662 402.191 571.614 402.806L570.895 427.31C570.847 428.079 570.415 429.104 569.744 428.899L544.528 423.722C544.049 423.568 543.713 423.106 543.713 422.543L543.617 419.877L546.398 419.108C547.117 418.903 547.788 418.493 548.363 418.031C548.507 417.929 548.603 417.826 548.699 417.673L549.274 416.75C549.466 416.494 549.514 416.135 549.466 415.776C549.37 415.212 549.226 414.443 549.13 414.033C549.082 413.879 549.035 413.725 548.987 413.623L548.363 412.187C548.076 411.521 547.596 411.008 546.973 410.701L546.59 410.496L543.857 408.907L544.097 399.32C544.097 398.654 544.624 398.141 545.247 398.141C545.343 398.141 545.391 398.141 545.439 398.141Z" fill="white"/>
</g>
</g>
<defs>
<linearGradient id="paint0_linear" x1="113.112" y1="158.974" x2="143.07" y2="158.237" gradientUnits="userSpaceOnUse">
<stop stop-color="#F71D69"/>
<stop offset="1" stop-color="#F8C648"/>
</linearGradient>
<linearGradient id="paint1_linear" x1="113.283" y1="177.746" x2="204.022" y2="175.515" gradientUnits="userSpaceOnUse">
<stop stop-color="#E5A4ED"/>
<stop offset="1" stop-color="#7A5BF5"/>
</linearGradient>
<linearGradient id="paint2_linear" x1="113.612" y1="200.205" x2="141.915" y2="199.513" gradientUnits="userSpaceOnUse">
<stop stop-color="#E5A4ED"/>
<stop offset="1" stop-color="#7A5BF5"/>
</linearGradient>
<linearGradient id="paint3_linear" x1="144.374" y1="199.713" x2="172.677" y2="199.021" gradientUnits="userSpaceOnUse">
<stop stop-color="#E5A4ED"/>
<stop offset="1" stop-color="#7A5BF5"/>
</linearGradient>
<linearGradient id="paint4_linear" x1="175.99" y1="199.208" x2="204.293" y2="198.516" gradientUnits="userSpaceOnUse">
<stop stop-color="#E5A4ED"/>
<stop offset="1" stop-color="#7A5BF5"/>
</linearGradient>
<linearGradient id="paint5_linear" x1="733.379" y1="178.731" x2="712.365" y2="175.137" gradientUnits="userSpaceOnUse">
<stop stop-color="#E5A4ED"/>
<stop offset="1" stop-color="#7A5BF5"/>
</linearGradient>
<linearGradient id="paint6_linear" x1="672.468" y1="175.445" x2="660.996" y2="173.25" gradientUnits="userSpaceOnUse">
<stop stop-color="#E5A4ED"/>
<stop offset="1" stop-color="#7A5BF5"/>
</linearGradient>
<linearGradient id="paint7_linear" x1="726.815" y1="150.472" x2="650.519" y2="137.421" gradientUnits="userSpaceOnUse">
<stop stop-color="#E5A4ED"/>
<stop offset="1" stop-color="#7A5BF5"/>
</linearGradient>
<linearGradient id="paint8_linear" x1="708.66" y1="135.944" x2="702.458" y2="134.883" gradientUnits="userSpaceOnUse">
<stop stop-color="#E5A4ED"/>
<stop offset="1" stop-color="#7A5BF5"/>
</linearGradient>
<linearGradient id="paint9_linear" x1="673.927" y1="129.216" x2="668.566" y2="128.299" gradientUnits="userSpaceOnUse">
<stop stop-color="#E5A4ED"/>
<stop offset="1" stop-color="#7A5BF5"/>
</linearGradient>
<linearGradient id="paint10_linear" x1="391.444" y1="338.958" x2="342.339" y2="295.188" gradientUnits="userSpaceOnUse">
<stop stop-color="#E5A4ED"/>
<stop offset="1" stop-color="#7A5BF5"/>
</linearGradient>
<linearGradient id="paint11_linear" x1="363.223" y1="293.384" x2="390.385" y2="264.828" gradientUnits="userSpaceOnUse">
<stop stop-color="#E5A4ED"/>
<stop offset="1" stop-color="#7A5BF5"/>
</linearGradient>
<linearGradient id="paint12_linear" x1="370.921" y1="271.213" x2="389.842" y2="273.599" gradientUnits="userSpaceOnUse">
<stop stop-color="#E5A4ED"/>
<stop offset="1" stop-color="#7A5BF5"/>
</linearGradient>
<linearGradient id="paint13_linear" x1="384.637" y1="266.576" x2="402.518" y2="247.773" gradientUnits="userSpaceOnUse">
<stop stop-color="#E5A4ED"/>
<stop offset="1" stop-color="#7A5BF5"/>
</linearGradient>
<linearGradient id="paint14_linear" x1="389.581" y1="251.973" x2="402.329" y2="253.581" gradientUnits="userSpaceOnUse">
<stop stop-color="#E5A4ED"/>
<stop offset="1" stop-color="#7A5BF5"/>
</linearGradient>
<linearGradient id="paint15_linear" x1="361.265" y1="264.065" x2="374.064" y2="250.611" gradientUnits="userSpaceOnUse">
<stop stop-color="#E5A4ED"/>
<stop offset="1" stop-color="#7A5BF5"/>
</linearGradient>
<linearGradient id="paint16_linear" x1="364.655" y1="254.251" x2="374.061" y2="254.251" gradientUnits="userSpaceOnUse">
<stop stop-color="#E5A4ED"/>
<stop offset="1" stop-color="#7A5BF5"/>
</linearGradient>
<linearGradient id="paint17_linear" x1="528.651" y1="517.74" x2="593.957" y2="517.74" gradientUnits="userSpaceOnUse">
<stop stop-color="#4B45BD"/>
<stop offset="1" stop-color="#58CAEA"/>
</linearGradient>
<linearGradient id="paint18_linear" x1="513.531" y1="358.328" x2="602.211" y2="358.328" gradientUnits="userSpaceOnUse">
<stop stop-color="#F87B58"/>
<stop offset="0.41" stop-color="#F89453"/>
<stop offset="0.71" stop-color="#F8C548"/>
<stop offset="1" stop-color="#F89C51"/>
</linearGradient>
<linearGradient id="paint19_linear" x1="509.984" y1="392.231" x2="603.746" y2="392.231" gradientUnits="userSpaceOnUse">
<stop stop-color="#E5A4ED"/>
<stop offset="1" stop-color="#7A5BF5"/>
</linearGradient>
<linearGradient id="paint20_linear" x1="544.925" y1="296.749" x2="576.131" y2="296.749" gradientUnits="userSpaceOnUse">
<stop stop-color="#4B45BD"/>
<stop offset="1" stop-color="#58CAEA"/>
</linearGradient>
<clipPath id="clip0">
<rect width="834" height="631" fill="white"/>
</clipPath>
<clipPath id="clip1">
<rect width="141.663" height="341.412" fill="white" transform="translate(491.027 284.747)"/>
</clipPath>
</defs>
</svg>
