<svg width="39" height="35" viewBox="0 0 39 35" fill="none" xmlns="http://www.w3.org/2000/svg">
<path fill-rule="evenodd" clip-rule="evenodd" d="M38.07 3.55951C38.07 0.830996 34.7468 -0.880771 32.0766 0.473712L21.5119 5.82943H10.0259C7.54204 5.82721 5.1459 6.64404 3.3026 8.12133C1.4593 9.59863 0.300351 11.631 0.0507306 13.8239C-0.19889 16.0168 0.478633 18.2138 1.95177 19.9883C3.42491 21.7629 5.58856 22.9884 8.0227 23.427V29.8262C8.0227 31.0047 8.55032 32.135 9.48948 32.9684C10.4286 33.8018 11.7024 34.27 13.0306 34.27C14.3588 34.27 15.6325 33.8018 16.5717 32.9684C17.5109 32.135 18.0385 31.0047 18.0385 29.8262V23.6048H21.5119L32.0766 28.9605C34.7468 30.315 38.07 28.605 38.07 25.8747V3.55951Z" fill="#7675BD"/>
</svg>
