<svg width="39" height="35" viewBox="0 0 39 35" fill="none" xmlns="http://www.w3.org/2000/svg">
<path d="M19.135 0C21.6478 -3.33349e-08 24.1361 0.440623 26.4576 1.29671C28.7792 2.1528 30.8886 3.40759 32.6655 4.98944C34.4423 6.57128 35.8518 8.44921 36.8134 10.516C37.7751 12.5828 38.27 14.7979 38.27 17.035C38.27 19.2721 37.7751 21.4872 36.8134 23.554C35.8518 25.6208 34.4423 27.4987 32.6655 29.0806C30.8886 30.6624 28.7792 31.9172 26.4576 32.7733C24.1361 33.6294 21.6478 34.07 19.135 34.07C14.0601 34.07 9.19302 32.2752 5.60451 29.0806C2.016 25.8859 0 21.553 0 17.035C0 12.517 2.016 8.18412 5.60451 4.98944C9.19302 1.79475 14.0601 6.73229e-08 19.135 0V0ZM13.554 15.6154C14.1883 15.6154 14.7967 15.3911 15.2453 14.9917C15.6938 14.5924 15.9458 14.0508 15.9458 13.486C15.9458 12.9213 15.6938 12.3797 15.2453 11.9803C14.7967 11.581 14.1883 11.3567 13.554 11.3567C12.9196 11.3567 12.3112 11.581 11.8626 11.9803C11.4141 12.3797 11.1621 12.9213 11.1621 13.486C11.1621 14.0508 11.4141 14.5924 11.8626 14.9917C12.3112 15.3911 12.9196 15.6154 13.554 15.6154V15.6154ZM24.716 15.6154C25.3504 15.6154 25.9588 15.3911 26.4074 14.9917C26.8559 14.5924 27.1079 14.0508 27.1079 13.486C27.1079 12.9213 26.8559 12.3797 26.4074 11.9803C25.9588 11.581 25.3504 11.3567 24.716 11.3567C24.0817 11.3567 23.4733 11.581 23.0247 11.9803C22.5762 12.3797 22.3242 12.9213 22.3242 13.486C22.3242 14.0508 22.5762 14.5924 23.0247 14.9917C23.4733 15.3911 24.0817 15.6154 24.716 15.6154ZM25.0924 25.0471C25.2241 25.198 25.3888 25.3237 25.5765 25.4166C25.7641 25.5095 25.9709 25.5677 26.1845 25.5877C26.398 25.6077 26.6139 25.5891 26.8192 25.533C27.0244 25.4769 27.2149 25.3845 27.379 25.2613C27.5432 25.1381 27.6777 24.9867 27.7746 24.816C27.8714 24.6454 27.9285 24.4592 27.9425 24.2684C27.9565 24.0777 27.9271 23.8864 27.856 23.706C27.7849 23.5256 27.6737 23.3599 27.5289 23.2187C23.3032 18.7612 14.9636 18.7612 10.7411 23.2187C10.5963 23.3599 10.4851 23.5256 10.414 23.706C10.3429 23.8864 10.3135 24.0777 10.3275 24.2684C10.3415 24.4592 10.3986 24.6454 10.4954 24.816C10.5923 24.9867 10.7268 25.1381 10.891 25.2613C11.0551 25.3845 11.2456 25.4769 11.4508 25.533C11.6561 25.5891 11.872 25.6077 12.0855 25.5877C12.2991 25.5677 12.5059 25.5095 12.6935 25.4166C12.8812 25.3237 13.0459 25.198 13.1776 25.0471C16.1276 21.9354 22.1392 21.9354 25.0924 25.0471Z" fill="#7675BD"/>
</svg>
