<svg width="39" height="35" viewBox="0 0 39 35" fill="none" xmlns="http://www.w3.org/2000/svg">
<path d="M31.8917 0H6.37833C4.68669 0 3.06434 0.451322 1.86817 1.25468C0.672001 2.05804 0 3.14763 0 4.28375V29.9862C0 31.1224 0.672001 32.212 1.86817 33.0153C3.06434 33.8187 4.68669 34.27 6.37833 34.27H31.8917C33.5833 34.27 35.2057 33.8187 36.4018 33.0153C37.598 32.212 38.27 31.1224 38.27 29.9862V4.28375C38.27 3.14763 37.598 2.05804 36.4018 1.25468C35.2057 0.451322 33.5833 0 31.8917 0V0ZM7.97292 6.42562H23.9188C24.3417 6.42562 24.7472 6.53846 25.0463 6.7393C25.3453 6.94014 25.5133 7.21253 25.5133 7.49656C25.5133 7.78059 25.3453 8.05299 25.0463 8.25383C24.7472 8.45467 24.3417 8.5675 23.9188 8.5675H7.97292C7.55001 8.5675 7.14442 8.45467 6.84538 8.25383C6.54633 8.05299 6.37833 7.78059 6.37833 7.49656C6.37833 7.21253 6.54633 6.94014 6.84538 6.7393C7.14442 6.53846 7.55001 6.42562 7.97292 6.42562ZM7.97292 10.7094H30.2971C30.72 10.7094 31.1256 10.8222 31.4246 11.023C31.7237 11.2239 31.8917 11.4963 31.8917 11.7803V28.9153C31.8917 29.1993 31.7237 29.4717 31.4246 29.6726C31.1256 29.8734 30.72 29.9862 30.2971 29.9862H7.97292C7.55001 29.9862 7.14442 29.8734 6.84538 29.6726C6.54633 29.4717 6.37833 29.1993 6.37833 28.9153V11.7803C6.37833 11.4963 6.54633 11.2239 6.84538 11.023C7.14442 10.8222 7.55001 10.7094 7.97292 10.7094Z" fill="#7675BD"/>
</svg>
