<svg width="39" height="35" viewBox="0 0 39 35" fill="none" xmlns="http://www.w3.org/2000/svg">
<path d="M37.2807 16.8554L19.9841 0.375334C19.8595 0.256354 19.7116 0.16196 19.5488 0.0975555C19.3859 0.033151 19.2114 0 19.0351 0C18.8588 0 18.6842 0.033151 18.5213 0.0975555C18.3585 0.16196 18.2106 0.256354 18.086 0.375334L0.789453 16.8554C0.285547 17.3359 0 17.9885 0 18.6692C0 20.0826 1.20518 21.2317 2.6875 21.2317H4.50996V32.9912C4.50996 33.6998 5.11045 34.2724 5.85371 34.2724H16.3476V25.3037H21.0507V34.2724H32.2164C32.9597 34.2724 33.5602 33.6998 33.5602 32.9912V21.2317H35.3826C36.0965 21.2317 36.781 20.9634 37.2849 20.4789C38.3305 19.478 38.3305 17.8564 37.2807 16.8554Z" fill="#7675BD"/>
</svg>
