<svg width="39" height="35" viewBox="0 0 39 35" fill="none" xmlns="http://www.w3.org/2000/svg">
<path d="M36.5098 24.8405C36.6653 23.9022 36.6653 22.944 36.5098 22.0058L38.0528 21.0143C38.2322 20.9011 38.3099 20.6682 38.2501 20.4487C37.8494 19.0113 37.1617 17.7071 36.2647 16.6291C36.1271 16.4627 35.9058 16.4228 35.7264 16.5359L34.1835 17.5274C33.5316 16.9086 32.7841 16.4295 31.9768 16.1101V14.1271C31.9768 13.9008 31.8332 13.7012 31.6359 13.6546C30.3023 13.3219 28.9447 13.3352 27.6769 13.6546C27.4796 13.7012 27.336 13.9008 27.336 14.1271V16.1101C26.5287 16.4295 25.7812 16.9086 25.1293 17.5274L23.5864 16.5359C23.4129 16.4228 23.1857 16.4627 23.0481 16.6291C22.1511 17.7071 21.4634 19.0113 21.0627 20.4487C21.0029 20.6682 21.0866 20.9011 21.26 21.0143L22.803 22.0058C22.6475 22.944 22.6475 23.9022 22.803 24.8405L21.26 25.832C21.0806 25.9451 21.0029 26.178 21.0627 26.3976C21.4634 27.8349 22.1511 29.1325 23.0481 30.2172C23.1857 30.3835 23.407 30.4234 23.5864 30.3103L25.1293 29.3188C25.7812 29.9377 26.5287 30.4168 27.336 30.7362V32.7192C27.336 32.9454 27.4796 33.1451 27.6769 33.1916C29.0105 33.5243 30.3681 33.511 31.6359 33.1916C31.8332 33.1451 31.9768 32.9454 31.9768 32.7192V30.7362C32.7841 30.4168 33.5316 29.9377 34.1835 29.3188L35.7264 30.3103C35.8999 30.4234 36.1271 30.3835 36.2647 30.2172C37.1617 29.1392 37.8494 27.8349 38.2501 26.3976C38.3099 26.178 38.2262 25.9451 38.0528 25.832L36.5098 24.8405V24.8405ZM29.6624 26.6505C28.0597 26.6505 26.7619 25.1998 26.7619 23.4231C26.7619 21.6464 28.0656 20.1958 29.6624 20.1958C31.2591 20.1958 32.5628 21.6464 32.5628 23.4231C32.5628 25.1998 31.2651 26.6505 29.6624 26.6505ZM13.3959 17.035C17.624 17.035 21.0507 13.2221 21.0507 8.5175C21.0507 3.81291 17.624 0 13.3959 0C9.16783 0 5.74111 3.81291 5.74111 8.5175C5.74111 13.2221 9.16783 17.035 13.3959 17.035ZM25.4283 32.107C25.2908 32.0271 25.1532 31.934 25.0217 31.8475L24.5492 32.1536C24.1904 32.3798 23.7837 32.5062 23.3771 32.5062C22.7252 32.5062 22.0973 32.2001 21.6488 31.6678C20.5544 30.3502 19.7171 28.7466 19.2447 27.0364C18.9157 25.8586 19.3583 24.6142 20.3151 23.9954L20.7876 23.6893C20.7816 23.5163 20.7816 23.3433 20.7876 23.1703L20.3151 22.8642C19.3583 22.252 18.9157 21.001 19.2447 19.8232C19.2985 19.6302 19.3762 19.4372 19.436 19.2442C19.2088 19.2243 18.9875 19.1644 18.7543 19.1644H17.7556C16.4279 19.8431 14.9508 20.2291 13.3959 20.2291C11.841 20.2291 10.3699 19.8431 9.03626 19.1644H8.03755C3.60015 19.1644 0 23.1703 0 28.1078V30.8759C0 32.6393 1.28577 34.07 2.87055 34.07H23.9213C24.5253 34.07 25.0874 33.8571 25.5479 33.5044C25.4762 33.2515 25.4283 32.992 25.4283 32.7192V32.107Z" fill="#7675BD"/>
</svg>
