<svg width="39" height="35" viewBox="0 0 39 35" fill="none" xmlns="http://www.w3.org/2000/svg">
<path d="M13.3245 15.2311C14.8304 15.2311 16.3025 14.7845 17.5546 13.9477C18.8067 13.1109 19.7826 11.9215 20.3589 10.5299C20.9352 9.13835 21.086 7.60711 20.7922 6.12984C20.4984 4.65256 19.7732 3.2956 18.7084 2.23055C17.6436 1.16549 16.2869 0.440182 14.8099 0.146334C13.3329 -0.147514 11.802 0.00329965 10.4107 0.579703C9.01947 1.15611 7.83033 2.13221 6.99369 3.38458C6.15705 4.63695 5.7105 6.10934 5.7105 7.61556C5.7105 9.63533 6.51269 11.5724 7.94059 13.0006C9.36849 14.4288 11.3051 15.2311 13.3245 15.2311ZM28.5525 19.0389C29.6819 19.0389 30.786 18.7039 31.7251 18.0763C32.6642 17.4487 33.3961 16.5567 33.8283 15.513C34.2605 14.4693 34.3736 13.3209 34.1533 12.2129C33.9329 11.105 33.3891 10.0873 32.5904 9.28847C31.7918 8.48968 30.7743 7.94569 29.6666 7.72531C28.5588 7.50492 27.4106 7.61803 26.3672 8.05033C25.3237 8.48264 24.4319 9.21472 23.8044 10.154C23.1769 11.0933 22.842 12.1976 22.842 13.3272C22.842 14.8421 23.4436 16.2948 24.5146 17.366C25.5855 18.4371 27.038 19.0389 28.5525 19.0389ZM36.1665 32.3661C36.6713 32.3661 37.1555 32.1655 37.5125 31.8085C37.8695 31.4514 38.07 30.9672 38.07 30.4622C38.0685 28.6828 37.5684 26.9395 36.6264 25.43C35.6844 23.9205 34.3384 22.7053 32.7409 21.9223C31.1434 21.1392 29.3584 20.8197 27.5886 20.9999C25.8187 21.1801 24.1347 21.8529 22.7278 22.9419C20.8633 21.0843 18.4907 19.8206 15.9091 19.3101C13.3275 18.7995 10.6526 19.0649 8.22165 20.073C5.7907 21.081 3.71261 22.7864 2.24944 24.9741C0.786277 27.1619 0.00355991 29.734 0 32.3661C0 32.8711 0.200547 33.3553 0.557522 33.7124C0.914498 34.0694 1.39866 34.27 1.9035 34.27H24.7455C25.2503 34.27 25.7345 34.0694 26.0915 33.7124C26.4485 33.3553 26.649 32.8711 26.649 32.3661" fill="#7675BD"/>
</svg>
