<svg width="1440" height="1024" viewBox="0 0 1440 1024" fill="none" xmlns="http://www.w3.org/2000/svg">
<path fill-rule="evenodd" clip-rule="evenodd" d="M-34.3105 -508.106L-20.5703 -273.954C-6.83003 -39.8021 20.6505 428.502 293.033 651.904C562.354 878.368 1073.52 862.99 1431.61 1000.68C1789.71 1138.36 1994.75 1429.11 2111.01 1808.64C2224.2 2191.23 2251.68 2659.53 2265.42 2893.69L2279.16 3127.84L2015.89 3391.11L1891.95 3267.16C1768 3143.21 1520.11 2895.32 1272.22 2647.43C1024.32 2399.54 776.431 2151.65 528.539 1903.75C280.646 1655.86 32.7537 1407.97 -215.139 1160.08C-463.031 912.184 -710.923 664.291 -834.87 540.345L-958.816 416.399L-34.3105 -508.106Z" fill="#B0A7E6"/>
</svg>
